<svg width="24" height="24" viewBox="0 0 24 24" fill="none" xmlns="http://www.w3.org/2000/svg">
  <path d="M12.3 0C5.5 0 0 5.5 0 12.3c0 5.4 3.5 10 8.4 11.6.6.1.8-.3.8-.6 0-.3 0-1.1 0-2.1-3.4.7-4.1-1.6-4.1-1.6-.6-1.4-1.4-1.8-1.4-1.8-1.1-.7.1-.7.1-.7 1.2 0 1.9 1.3 1.9 1.3 1.1 1.9 2.9 1.3 3.6 1 .1-.8.4-1.3.8-1.6-2.7-.3-5.5-1.4-5.5-6.2 0-1.4.5-2.5 1.3-3.4-.1-.3-.6-1.6.1-3.4 0 0 1.1-.3 3.5 1.3 1-.3 2.1-.4 3.2-.4 1.1 0 2.2.1 3.2.4 2.4-1.7 3.5-1.3 3.5-1.3.7 1.8.2 3.1.1 3.4.8.9 1.3 2 1.3 3.4 0 4.8-2.8 5.9-5.5 6.2.5.4.9 1.2.9 2.4 0 1.7 0 3.1 0 3.5 0 .3.2.7.8.6 4.9-1.6 8.4-6.2 8.4-11.6C24.6 5.5 19.1 0 12.3 0z" fill="currentColor"/>
</svg>
